/* XPM */
static char * character_lantern2_xpm[] = {
"32 32 18 1",
" 	c None",
".	c #9D0505",
"+	c #000000",
"@	c #B50D0D",
"#	c #FFFFFF",
"$	c #C31010",
"%	c #D50707",
"&	c #A5A314",
"*	c #C8C617",
"=	c #570C0C",
"-	c #807F11",
";	c #5D4409",
">	c #EBE42C",
",	c #FF8607",
"'	c #4A3608",
")	c #FFF600",
"!	c #E75624",
"~	c #E2DF18",
"                                ",
"                                ",
"                                ",
"                                ",
"                                ",
"                                ",
"                                ",
"                                ",
"             .......            ",
"            ..+++.....          ",
"            .+++++.@@..         ",
"            .+#+#++.$@@.        ",
"            .++++++.$$@@.       ",
"            .++++++.%$$@.       ",
"            ..++++.%%%$...      ",
"             .....%%%%..        ",
"   &**===***++%%%%%+++--        ",
"  &**=**;=;*.+%%%++..---        ",
" &&**=====;;%%+>+%$.&----       ",
"&&**=,,=,,=;''%>%%$$.&&---      ",
"&***=,)=),=!;''>%%%$@.&---      ",
"&***=======!!;'.%%%$@..&---     ",
"&***=,)=),=!!;''.%%$@@.&---     ",
"&***~=====.!!;''+.%$@@.&---     ",
"&**~~~~~~~.!.;''++.%$@.&---     ",
"&*~~~~~~~~..~;'''++.@@.&---     ",
"&*~~~~~~~~~~~''*&'+&..&&--      ",
"&*~~~~~~~~~~~'**&&+&&&&---      ",
"&**~~~~~~~~~*'*&&&+&&----       ",
" ****~~~~~***&&&&&&&---         ",
"   ********~&&&&&&&---          ",
"                                "};
