/* XPM */
static char *b9f0660be92a4a1597ff48e458090403SAESxEqj8P59x8A4[] = {
/* columns rows colors chars-per-pixel */
"32 32 207 2 ",
"   c None",
".  c #040000",
"X  c #060000",
"o  c #060004",
"O  c #010504",
"+  c #090000",
"@  c #0A0000",
"#  c #0B0000",
"$  c #090003",
"%  c #0E0000",
"&  c #0F0000",
"*  c #060A00",
"=  c #06030C",
"-  c #120000",
";  c #130000",
":  c #150000",
">  c #160000",
",  c #140200",
"<  c #1C0000",
"1  c #1D0000",
"2  c #1E0000",
"3  c #1E0001",
"4  c #210000",
"5  c #220000",
"6  c #260000",
"7  c #270000",
"8  c #280000",
"9  c #290000",
"0  c #2A0000",
"q  c #2B0000",
"w  c #2C0000",
"e  c #2E0000",
"r  c #310000",
"t  c #340000",
"y  c #350000",
"u  c #370000",
"i  c #380000",
"p  c #390000",
"a  c #3C0000",
"s  c #3E0000",
"d  c #3F0000",
"f  c #440000",
"g  c #480000",
"h  c #4E0000",
"j  c #590000",
"k  c #5B0000",
"l  c #600000",
"z  c #6D0000",
"x  c #760F06",
"c  c #7E0B06",
"v  c #790E04",
"b  c #780708",
"n  c #740E09",
"m  c #730B0F",
"M  c #7D080E",
"N  c #780F0C",
"B  c #6F1201",
"V  c #6E110A",
"C  c #77110D",
"Z  c #79110E",
"A  c #781C0F",
"S  c #670D16",
"D  c #661716",
"F  c #691815",
"G  c #6F1A17",
"H  c #6C1F15",
"J  c #6D1418",
"K  c #6B141C",
"L  c #761210",
"P  c #741513",
"I  c #751014",
"U  c #751614",
"Y  c #771E16",
"T  c #791C17",
"R  c #721319",
"E  c #73161E",
"W  c #7A101A",
"Q  c #7B131A",
"!  c #7A1519",
"~  c #74181B",
"^  c #7E1A1A",
"/  c #6A211B",
"(  c #551921",
")  c #511F22",
"_  c #551E21",
"`  c #641727",
"'  c #691022",
"]  c #611A20",
"[  c #601F27",
"{  c #681728",
"}  c #631C2A",
"|  c #741221",
" . c #7B1220",
".. c #731A2B",
"X. c #4D2526",
"o. c #572121",
"O. c #58272D",
"+. c #652226",
"@. c #71262A",
"#. c #8F000D",
"$. c #8E050F",
"%. c #850909",
"&. c #870B09",
"*. c #850E0A",
"=. c #8A080A",
"-. c #8D080B",
";. c #93060F",
":. c #9B060A",
">. c #9F0B0B",
",. c #8B1000",
"<. c #84110E",
"1. c #961700",
"2. c #830F18",
"3. c #8C0E19",
"4. c #9E0B13",
"5. c #831013",
"6. c #8C1211",
"7. c #8F1114",
"8. c #881414",
"9. c #841619",
"0. c #89161B",
"q. c #81181C",
"w. c #9B1315",
"e. c #9B1516",
"r. c #981910",
"t. c #9F1C14",
"y. c #9B181D",
"u. c #A90503",
"i. c #A40F0B",
"p. c #BE0606",
"a. c #B60905",
"s. c #B20F06",
"d. c #BE0807",
"f. c #B60E0D",
"g. c #B9090C",
"h. c #BE0B0F",
"j. c #BA0E0C",
"k. c #BC0C0C",
"l. c #BD0F0E",
"z. c #A91400",
"x. c #A8150B",
"c. c #AB170B",
"v. c #B71508",
"b. c #B6130E",
"n. c #BD140D",
"m. c #BC0C16",
"M. c #AC1413",
"N. c #A41912",
"B. c #AB1A15",
"V. c #A11518",
"C. c #A0151C",
"Z. c #AA191E",
"A. c #AA1E1D",
"S. c #B71210",
"D. c #B01711",
"F. c #B61412",
"G. c #B01115",
"H. c #BA1114",
"J. c #B71C17",
"K. c #B3131B",
"L. c #B0151B",
"P. c #B2161A",
"I. c #B61618",
"U. c #B6161E",
"Y. c #BA171A",
"T. c #B31B1A",
"R. c #B61D18",
"E. c #B31A1D",
"W. c #B9191B",
"Q. c #BB1C19",
"!. c #B9181D",
"~. c #952800",
"^. c #98231A",
"/. c #A22000",
"(. c #A32018",
"). c #821421",
"_. c #911F27",
"`. c #A31C22",
"'. c #B21B22",
"]. c #BD1C21",
"[. c #982723",
"{. c #B72122",
"}. c #C20501",
"|. c #C90D01",
" X c #C70E09",
".X c #CB080E",
"XX c #CE0A0C",
"oX c #C90D0C",
"OX c #C51200",
"+X c #C21705",
"@X c #C3100C",
"#X c #C2130E",
"$X c #CC100E",
"%X c #C5190F",
"&X c #C50A11",
"*X c #C30C10",
"=X c #CF0A13",
"-X c #D60E18",
";X c #C11113",
":X c #CD1112",
">X c #C2131A",
",X c #D21B17",
"<X c #999C91",
"1X c #A3978B",
"2X c #FFB182",
"3X c #FFBE81",
"4X c #FFB987",
/* pixels */
"                                                                ",
"                                                                ",
"                                                                ",
"                                                                ",
"                                                                ",
"                                                                ",
"                                                                ",
"                                                                ",
"                        ).2.U F ] } {                           ",
"                    R 3.#.$.C s t s ' `                         ",
"                  N :.K.`.P 0 % % > 0 O.                        ",
"                x B.;XH.6.t % <X* 1X3 X.                        ",
"              Y N.n.#XD.n 0 3 # . > 7 )                         ",
"              Z i.a.#XJ.<.p 7 3 ; 3 r [                         ",
"            _ ~ -.W.h.g.!.=.f 0 w w | ..                        ",
"                E M C.'.L.A.v A L W  .                          ",
"                    0 t g [.^.(.I.Z.s 5                         ",
"                      o.I j l x.v.x.h /                         ",
"                        4.m.F.z 4Xj s.U.W                       ",
"                      c >X=X*Xz.3X~.|.-X;.K                     ",
"                    *.Q.p.XX.X%X2X/.OX}.].9.                    ",
"                  G >.d.$XoX&Xu.,.1.+X Xf.%.                    ",
"                  ^ M.#X,Xk.L.%.p B S.:Xb.r.H                   ",
"                  m {.k.j.T.5.p 5 0 7.G.R.t.V                   ",
"                  J V.Y.E.8.0 ; # ; 0 T e.w.q.                  ",
"                  +.0.y.b t ; O = o %   ! _.S                   ",
"                    @.D   > .     # #     (                     ",
"                          .         .                           ",
"                          .         .                           ",
"                                                                ",
"                                                                ",
"                                                                "
};
