/* XPM */
static char * character_left_xpm[] = {
"32 32 8 1",
" 	c None",
".	c #9D0505",
"+	c #000000",
"@	c #D50707",
"#	c #FFFFFF",
"$	c #C31010",
"%	c #B50D0D",
"&	c #EBE42C",
"                                ",
"                                ",
"                                ",
"                                ",
"                                ",
"                                ",
"                                ",
"                                ",
"             .......            ",
"            ..+++.....          ",
"            .+++++.@@..         ",
"            .+#+#++.@@$.        ",
"            .++++++.@$$%.       ",
"            .++++++.$$%%.       ",
"            ..++++.@$%%...      ",
"             .....@@$%..        ",
"            ++@@@@@+++          ",
"            .+@@@++..           ",
"           .@@+&+@@.            ",
"          ..@@@&@@@@.           ",
"          .$@@@&@@@@@.          ",
"          .$@@...@@@@..         ",
"         .%$@@.+.@@$$$.         ",
"         .%$$.+++.$$$$.         ",
"         .%%.+++++.$$%.         ",
"         .%. ++++++.%%.         ",
"          .  ++  ++ ..          ",
"             +    +             ",
"             +    +             ",
"                                ",
"                                ",
"                                "};
