/* XPM */
static char *b715ec204c104efcfa83a9e4e0690b13nIj3sUaGqLxZiTJH[] = {
/* columns rows colors chars-per-pixel */
"32 32 18 1 ",
"  c None",
". c #9D0505",
"X c black",
"o c #B50D0D",
"O c #C31010",
"+ c white",
"@ c #D50707",
"# c #807F11",
"$ c #C8C617",
"% c #570C0C",
"& c #A5A314",
"* c #5D4409",
"= c #EBE42C",
"- c #4A3608",
"; c #FF8607",
": c #E75624",
"> c #FFF600",
", c #E2DF18",
/* pixels */
"                                ",
"                                ",
"                                ",
"                                ",
"                                ",
"                                ",
"                                ",
"                                ",
"            .......             ",
"          .....XXX..            ",
"         ..oo.XXXXX.            ",
"        .ooO.XX+X+X.            ",
"       .ooOO.XXXXXX.            ",
"       .oOO@.XXXXXX.            ",
"      ...O@@@.XXXX..            ",
"        ..@@@@.....             ",
"        ##XXX@@@@@XX$$$%%%$$&   ",
"        ###..XX@@@X.$*%*$$%$$&  ",
"       ####&.O@X=X@@**%%%%%$$&& ",
"      ###&&.OO@@=@--*%;;%;;%$$&&",
"      ###&.oO@@@=--*:%;>%>;%$$$&",
"     ###&..oO@@@.-*::%%%%%%%$$$&",
"     ###&.ooO@@.--*::%;>%>;%$$$&",
"     ###&.ooO@.X--*::.%%%%%,$$$&",
"     ###&.oO@.XX--*.:.,,,,,,,$$&",
"     ###&.oo.XX---*,..,,,,,,,,$&",
"      ##&&..&X-&$--,,,,,,,,,,,$&",
"      ###&&&&X&&$$-,,,,,,,,,,,$&",
"       ####&&X&&&$-$,,,,,,,,,$$&",
"         ###&&&&&&&$$$,,,,,$$$$ ",
"          ###&&&&&&&,$$$$$$$$   ",
"                                "
};
