/* XPM */
static char *result[] = {
/* columns rows colors chars-per-pixel */
"32 32 7 1 ",
"  c black",
". c #42180E",
"X c #5C2113",
"o c #615654",
"O c #686868",
"+ c gray60",
"@ c None",
/* pixels */
"@@@@@@@@               @@@@@@@@@",
"@@@@@@@ +O+++O+++O+++O+ @@@@@@@@",
"@@@@@@@ +O+++O+++O+++O+ @@@@@@@@",
"@@@@@  ++O+         +O++  @@@@@@",
"@@@@@ +++  X.XX.XX.X  +++ @@@@@@",
"@@@@ +O++ XX.XX.XX.XX +++O @@@@@",
"@@@@ ++O .XX.XX.XX.XX. +O+ @@@@@",
"@@@ ++++ .XX.XX.XX.XX. O+++ @@@@",
"@@@ +++ X.XX.XX.XX.XX.X +++ @@@@",
"@@@ +++ X.XX.XX.XX.XX.X +++ @@@@",
"@@@ OO XX.XX.XX.XX.XX.XX OO @@@@",
"@@@ ++ XX.XX.XX.XX.XX.XX ++ @@@@",
"@@@ ++ XX.XX.XX.XX.XXooo ++ @@@@",
"@@@ ++ XX.XX.XX.XX.XXooo ++ @@@@",
"@@@ OO XX.XX.XX.XX.XX.XX OO @@@@",
"@@@ ++ XX.XX.XX.XX.XX.XX ++ @@@@",
"@@@ ++ XX.XX.XX.XX.XX.XX ++ @@@@",
"@@@ ++ XX    XX.XX.XX.XX ++ @@@@",
"@@@ OO XX.  .XX.XX.XX.XX OO @@@@",
"@@@ ++ XX XX XX.XX.XX.XX ++ @@@@",
"@@@ ++ XX XX XX.XX.XX.XX ++ @@@@",
"@@@ ++ XX.  .XX.XX.XX.XX ++ @@@@",
"@@@ OO XX.XX.XX.XX.XX.XX OO @@@@",
"@@@ ++ XX.XX.XX.XX.XX.XX ++ @@@@",
"@@@ ++ XX.XX.XX.XX.XX.XX ++ @@@@",
"@@@ ++ XX.XX.XX.XX.XX.XX ++ @@@@",
"@@@ OO XX.XX.XX.XX.XXooo OO @@@@",
"@@@ ++ XX.XX.XX.XX.XXooo ++ @@@@",
"@@@ ++ XX.XX.XX.XX.XX.XX ++ @@@@",
"@@@ ++ XX.XX.XX.XX.XX.XX ++ @@@@",
"@@@ OO XX.XX.XX.XX.XX.XX OO @@@@",
"@@@ +++                 +++ @@@@"
};
