/* XPM */
static char * flame2_xpm[] = {
"32 32 5 1",
" 	c None",
".	c #FF2B23",
"+	c #FF7A32",
"@	c #FF2634",
"#	c #000000",
"                                ",
"            ........            ",
"           ..++++++...          ",
"            .++++++++..         ",
"            ..++++++++..        ",
"     ..      ..++++++++..       ",
"      ...   ...+++++++++.       ",
"       ...  .+..++++@++++.      ",
"       .... .++.+++@@++++..     ",
"        .+.  .+.++++@@++++.     ",
"        .++..++.+++++@+++++.    ",
"        .+++.++.+++++@+++++.    ",
"        .++++.+.++++++++++++.   ",
"       ..++++.+.++++++++++++.   ",
"       .++++++..+++++@@+++++.   ",
"  .  ...++++++.+++++++@@++++.   ",
"  ....+++.++++.++++++++@++++.   ",
"  .++++++.++++.++++++++@++++.   ",
"  .++++++.+++++++++++++.++++.   ",
"   .++++.@+++++++++++++.++++.   ",
"   ..+++@++++++++.+++++.+++..   ",
"    .+++++++++++.@+++++++++.    ",
"     .+++++++++..+++++++++..    ",
"      .+++++++..+++++++++..     ",
"       .++++++++++++++++..      ",
"        .++++++++++++++..       ",
"        ..++++++++++++..        ",
"         ..++++++.....          ",
"          ........              ",
"                                ",
"                                ",
"                                "};
