/* XPM */
static char * Wall_xpm[] = {
"32 32 3 1",
" 	c #3C3C3C",
".	c #484848",
"+	c #545454",
"        ..+   +..        .++    ",
"        .+    ++..       ..++   ",
"       ..+    ..+..       ..++  ",
"       .+     ..++..       ..+  ",
"      ..+      ..++..       .++ ",
"++    .++..     .+++..       ..+",
".+++ ..+..      ..+++..        .",
" ...+.++..       ..+++.         ",
"   +++++..       ...++..        ",
"  ++..++.          ..++.        ",
" ++. .+..           .+++.       ",
"++.  .+.            .+++.      +",
"...  ++.            ..+++.     +",
"    ++..             ..+++.  ++.",
"   .++.               .+++..++..",
"  .+.+..               ++++++.. ",
"..+  .+.               .++++..  ",
".++  .+.               .+++..   ",
".+    .+.              .++..    ",
"+     .+.            ..++.      ",
"      .++           ..+++..     ",
"      ..+          ..++++++.    ",
"      ..+         ..++..++++    ",
"       .++       ..++  .+.++    ",
"        .+      ..++   .+.++    ",
"        ..+     .++     +. ++   ",
"         .+    +++       + .+.. ",
"         .+   +++.       +. ++. ",
"          .+ ++...       +. .+. ",
"          .+++..         ++  ++.",
"          .++..          ++  .+.",
"           .+.           ++  .++"};
