/* XPM */
static char *b6dcd7652bdb4289ecbe96b0f6826554a4ejXF3QQ3rmOCnb[] = {
/* columns rows colors chars-per-pixel */
"32 32 5 1 ",
"  c None",
". c #570C0C",
"X c #ADA8A8",
"o c white",
"O c black",
/* pixels */
"                                ",
"                                ",
"                                ",
"                                ",
"                                ",
"                                ",
"                                ",
"             ....               ",
"          ..........            ",
"         .   ....   .           ",
"         .          .           ",
"          .        .            ",
"          .        .            ",
"         ............           ",
"         .    ..    .           ",
"        ..    ..    ..          ",
"       ..    X..X    ..         ",
"       . ...XX..XX... .         ",
"       ....XXX..oXX....         ",
"       ..  XXX..XoX  ..         ",
"       .   XXX..XoX   .         ",
"       ................         ",
"       ................         ",
"       .   XXX..XoX   .         ",
"       ..   XX..XX   ..         ",
"        .    X..X    .          ",
"         .   X..X   .           ",
"          ..........            ",
"                                ",
"                                ",
"                                ",
"                                "
};
