/* XPM */
static char *_df87f24c32e49a3a0b27a98cb7f5513yzl4mjx6VJjf9TFK[] = {
/* columns rows colors chars-per-pixel */
"32 32 5 1 ",
"  c None",
". c black",
"X c #C38E3F",
"o c #E7A94B",
"O c red",
/* pixels */
"                                ",
"                                ",
"                                ",
"                                ",
"                                ",
"    ................            ",
"   .XX.ooooooooooooo.           ",
"  .XoXX.XoooooooooooX.          ",
"  .XooX.XoooooooooooX.          ",
"  .XooX.XoOoooooooOoX.          ",
"   .XXX.XoOOoooooOooX.          ",
"    ....XoOoOoooOoooX.          ",
"       .XoOooOoOOOOoX.          ",
"       .XoOooOoooOooX.          ",
"       .XoOooOooOoooX.          ",
"       .XXoooooOooooX.          ",
"        .XoOOoooOOooX.          ",
"       .XXoOoOoOoOooX.          ",
"       .XooOooOooOooX.          ",
"       .XooOoOoOoOooX.          ",
"       .XooOOoooOOooX.          ",
"       .XoooooooooooX.          ",
"        .o...............       ",
"       .Xo.oooooooooooooo.      ",
"       .XoX.ooooooooooooo.      ",
"       .XXX.oXooXooXooXoo.      ",
"        .X.XXXXXXXXXXXXX.       ",
"         ...............        ",
"                                ",
"                                ",
"                                ",
"                                "
};
