/* XPM */
static char *_f4139b84a7243a09bd68ff917d36913ifsvrrGhuo9LHM2p[] = {
/* columns rows colors chars-per-pixel */
"32 32 25 1 ",
"  c #545353",
". c #747474",
"X c gray45",
"o c #717171",
"O c #6D6C6C",
"+ c #717070",
"@ c #6D6D6D",
"# c #686767",
"$ c gray43",
"% c gray44",
"& c #6F6F6F",
"* c #727272",
"= c gray42",
"- c #6C6C6C",
"; c #6E6D6D",
": c #555454",
"> c #6C6B6B",
", c #696565",
"< c #6B6A6A",
"1 c #6F6E6E",
"2 c #565555",
"3 c #585757",
"4 c #706F6F",
"5 c #6A6A6A",
"6 c black",
/* pixels */
"                                ",
"                                ",
"   ...XoO+  ......o@o   O...oo  ",
"  #...X$O+  .....%&o   O*...oo  ",
"  #.....&&  ....$=%   -&....oo  ",
"  ###.....  ...X-;:  &$....X+o  ",
"  ###.....  ...&%   >&.....X+o  ",
"  ###.....  .o$o   $-X..X%.o&o  ",
"  ####...   .+&     oo..&..%+o  ",
"  ####...  ...      .o;%...&oo  ",
"  ####..  ,,,   X-   o$o..X%&&  ",
"  ####..  ,,   oO%o   .&..o&O&  ",
"  ###..  ,    oo=X&o   &o.@$$X  ",
"  ###..      o&o..oo   X-$&o    ",
"  ###      o&$.....&&   <O&     ",
"  ##.  ..  o&X......>1   :2     ",
"  ##   ..  %+......oo$-     ..  ",
"  #   ...  o&......&$$$    o..  ",
"     ....  .&.....o&;13   ....  ",
"    ......  @4....o&@   o.....  ",
"    ......  $@.....&    ##....  ",
"  ........  *&....oo  .&###*..  ",
"  .........  @@...oo  .####%..  ",
"             >-...oo  .#####..  ",
"             @<...oo  ##..###.  ",
"  ########   .5;..&o  ##.X%###  ",
"  #####.....  @O..&o  ...&&.##  ",
"  ..........  o&..oo  ...%X...  ",
"  ..........  X%..++  oo*1XXX.  ",
"  ........###  %+.X&  oo*$%%%.  ",
"                                ",
"                                "
};
